<svg width="29" height="29" viewBox="0 0 29 29" fill="none" xmlns="http://www.w3.org/2000/svg">
<rect x="0.479492" y="0.5" width="28" height="28" rx="14" fill="url(#paint0_linear_4295_9310)"/>
<path d="M14.0904 17.8245C14.1032 17.8374 14.1168 17.8496 14.1308 17.8611C14.137 17.8662 14.1436 17.8706 14.1499 17.8754C14.1579 17.8814 14.1658 17.8876 14.1741 17.8931C14.1819 17.8983 14.19 17.9028 14.1979 17.9076C14.2053 17.9121 14.2126 17.9167 14.2202 17.9208C14.2284 17.9252 14.2368 17.9289 14.2452 17.9328C14.2531 17.9366 14.2609 17.9405 14.269 17.9439C14.2772 17.9472 14.2855 17.95 14.2938 17.9529C14.3025 17.9561 14.311 17.9594 14.3198 17.962C14.3281 17.9645 14.3365 17.9664 14.3449 17.9685C14.3539 17.9708 14.3629 17.9733 14.372 17.9751C14.3817 17.977 14.3914 17.9782 14.4012 17.9796C14.4092 17.9807 14.4171 17.9823 14.4253 17.9831C14.4434 17.9848 14.4615 17.9858 14.4796 17.9858C14.4977 17.9858 14.5159 17.9849 14.5339 17.9831C14.5422 17.9823 14.5502 17.9807 14.5584 17.9795C14.568 17.9782 14.5776 17.977 14.5871 17.9751C14.5965 17.9733 14.6056 17.9707 14.6148 17.9684C14.623 17.9663 14.6312 17.9645 14.6393 17.9621C14.6484 17.9593 14.6571 17.9559 14.6659 17.9528C14.674 17.9499 14.6822 17.9472 14.6902 17.9439C14.6985 17.9405 14.7063 17.9365 14.7144 17.9327C14.7226 17.9288 14.731 17.9251 14.739 17.9208C14.7467 17.9167 14.754 17.912 14.7615 17.9075C14.7694 17.9028 14.7775 17.8983 14.7852 17.8931C14.7934 17.8877 14.801 17.8816 14.8089 17.8757C14.8154 17.8708 14.8221 17.8663 14.8285 17.8611C14.8419 17.85 14.8547 17.8384 14.867 17.8262C14.8676 17.8256 14.8683 17.8252 14.8688 17.8246L17.4374 15.2561C17.6524 15.0412 17.6524 14.6927 17.4374 14.4778C17.2225 14.2628 16.874 14.2628 16.6591 14.4777L15.03 16.1067V9.3629C15.03 9.05893 14.7836 8.8125 14.4796 8.8125C14.1756 8.8125 13.9292 9.05893 13.9292 9.3629V16.1066L12.3003 14.4778C12.0854 14.2628 11.7369 14.2628 11.5219 14.4778C11.307 14.6927 11.307 15.0412 11.5219 15.2561L14.0904 17.8245Z" fill="white"/>
<path d="M19.9835 14.3164C19.6795 14.3164 19.4331 14.5628 19.4331 14.8668V19.0866H9.52586V14.8668C9.52586 14.5628 9.27942 14.3164 8.97545 14.3164C8.67148 14.3164 8.42505 14.5628 8.42505 14.8668V19.637C8.42505 19.9409 8.67148 20.1874 8.97545 20.1874H19.9835C20.2875 20.1874 20.5339 19.9409 20.5339 19.637V14.8668C20.5339 14.5628 20.2875 14.3164 19.9835 14.3164Z" fill="white"/>
<defs>
<linearGradient id="paint0_linear_4295_9310" x1="0.479492" y1="0.5" x2="28.4795" y2="28.5" gradientUnits="userSpaceOnUse">
<stop stop-color="#00C4B4"/>
<stop offset="1" stop-color="#70EFDE"/>
</linearGradient>
</defs>
</svg>
