<svg xmlns="http://www.w3.org/2000/svg" width="40" height="28" viewBox="0 0 40 28" fill="none">
    <path fill-rule="evenodd" clip-rule="evenodd" d="M2.92969e-05 27.7168C7.51498 27.0701 13.4176 21.166 13.4176 14.0044C13.4176 6.84203 7.51498 0.938649 2.92969e-05 0.291992L2.92969e-05 5.68756C4.54769 6.28351 8.05087 9.78591 8.05087 14.0044C8.05087 17.2027 6.0372 19.9894 3.08138 21.4099H1.37133C0.796855 21.4099 0.304925 21.781 0.10081 22.3075C0.0672742 22.3123 0.0336803 22.3168 2.92969e-05 22.3212L2.92969e-05 22.8413C9.77559e-06 22.8445 0 22.8477 0 22.8508L0 23.3614L2.92969e-05 23.3614L2.92969e-05 27.7168Z" fill="white"/>
    <path opacity="0.9" d="M22.516 10.9441C22.516 16.8217 17.7343 21.6034 11.8551 21.6034L1.17787 21.6034C0.52731 21.6034 0 22.1307 0 22.7812L0 16.2359L11.8551 16.2359C14.774 16.2359 17.1493 13.8614 17.1493 10.9433C17.1493 8.02514 14.7748 5.64913 11.8551 5.64913L0 5.64913L0 0.283203L11.8551 0.283203C17.7343 0.283203 22.516 5.06487 22.516 10.9441Z" fill="url(#paint0_linear_1_19866)"/>
    <defs>
        <linearGradient id="paint0_linear_1_19866" x1="20.1798" y1="1.84163" x2="-2.74239" y2="17.5994" gradientUnits="userSpaceOnUse">
            <stop offset="0.226493" stop-color="#02C9A8"/>
            <stop offset="1" stop-color="#ABC7FF"/>
        </linearGradient>
    </defs>
</svg>